<?xml version="1.0" encoding="UTF-8"?>
<svg width="158px" height="328px" viewBox="0 0 158 328" version="1.1" xmlns="http://www.w3.org/2000/svg" xmlns:xlink="http://www.w3.org/1999/xlink">
    <!-- Generator: Sketch 54.1 (76490) - https://sketchapp.com -->
    <title>dots-blue</title>
    <desc>Created with Sketch.</desc>
    <g id="dots-blue" stroke="none" stroke-width="1" fill="none" fill-rule="evenodd">
        <g id="Dots" fill="#56CEFF">
            <path d="M2.5,5 C1.11928813,5 0,3.88071187 0,2.5 C0,1.11928813 1.11928813,0 2.5,0 C3.88071187,0 5,1.11928813 5,2.5 C5,3.88071187 3.88071187,5 2.5,5 Z M19.5,5 C18.1192881,5 17,3.88071187 17,2.5 C17,1.11928813 18.1192881,0 19.5,0 C20.8807119,0 22,1.11928813 22,2.5 C22,3.88071187 20.8807119,5 19.5,5 Z M36.5,5 C35.1192881,5 34,3.88071187 34,2.5 C34,1.11928813 35.1192881,0 36.5,0 C37.8807119,0 39,1.11928813 39,2.5 C39,3.88071187 37.8807119,5 36.5,5 Z M53.5,5 C52.1192881,5 51,3.88071187 51,2.5 C51,1.11928813 52.1192881,0 53.5,0 C54.8807119,0 56,1.11928813 56,2.5 C56,3.88071187 54.8807119,5 53.5,5 Z M70.5,5 C69.1192881,5 68,3.88071187 68,2.5 C68,1.11928813 69.1192881,0 70.5,0 C71.8807119,0 73,1.11928813 73,2.5 C73,3.88071187 71.8807119,5 70.5,5 Z M87.5,5 C86.1192881,5 85,3.88071187 85,2.5 C85,1.11928813 86.1192881,0 87.5,0 C88.8807119,0 90,1.11928813 90,2.5 C90,3.88071187 88.8807119,5 87.5,5 Z M104.5,5 C103.119288,5 102,3.88071187 102,2.5 C102,1.11928813 103.119288,0 104.5,0 C105.880712,0 107,1.11928813 107,2.5 C107,3.88071187 105.880712,5 104.5,5 Z M121.5,5 C120.119288,5 119,3.88071187 119,2.5 C119,1.11928813 120.119288,0 121.5,0 C122.880712,0 124,1.11928813 124,2.5 C124,3.88071187 122.880712,5 121.5,5 Z M138.5,5 C137.119288,5 136,3.88071187 136,2.5 C136,1.11928813 137.119288,0 138.5,0 C139.880712,0 141,1.11928813 141,2.5 C141,3.88071187 139.880712,5 138.5,5 Z M155.5,5 C154.119288,5 153,3.88071187 153,2.5 C153,1.11928813 154.119288,0 155.5,0 C156.880712,0 158,1.11928813 158,2.5 C158,3.88071187 156.880712,5 155.5,5 Z M2.5,22 C1.11928813,22 0,20.8807119 0,19.5 C0,18.1192881 1.11928813,17 2.5,17 C3.88071187,17 5,18.1192881 5,19.5 C5,20.8807119 3.88071187,22 2.5,22 Z M19.5,22 C18.1192881,22 17,20.8807119 17,19.5 C17,18.1192881 18.1192881,17 19.5,17 C20.8807119,17 22,18.1192881 22,19.5 C22,20.8807119 20.8807119,22 19.5,22 Z M36.5,22 C35.1192881,22 34,20.8807119 34,19.5 C34,18.1192881 35.1192881,17 36.5,17 C37.8807119,17 39,18.1192881 39,19.5 C39,20.8807119 37.8807119,22 36.5,22 Z M53.5,22 C52.1192881,22 51,20.8807119 51,19.5 C51,18.1192881 52.1192881,17 53.5,17 C54.8807119,17 56,18.1192881 56,19.5 C56,20.8807119 54.8807119,22 53.5,22 Z M70.5,22 C69.1192881,22 68,20.8807119 68,19.5 C68,18.1192881 69.1192881,17 70.5,17 C71.8807119,17 73,18.1192881 73,19.5 C73,20.8807119 71.8807119,22 70.5,22 Z M87.5,22 C86.1192881,22 85,20.8807119 85,19.5 C85,18.1192881 86.1192881,17 87.5,17 C88.8807119,17 90,18.1192881 90,19.5 C90,20.8807119 88.8807119,22 87.5,22 Z M104.5,22 C103.119288,22 102,20.8807119 102,19.5 C102,18.1192881 103.119288,17 104.5,17 C105.880712,17 107,18.1192881 107,19.5 C107,20.8807119 105.880712,22 104.5,22 Z M121.5,22 C120.119288,22 119,20.8807119 119,19.5 C119,18.1192881 120.119288,17 121.5,17 C122.880712,17 124,18.1192881 124,19.5 C124,20.8807119 122.880712,22 121.5,22 Z M138.5,22 C137.119288,22 136,20.8807119 136,19.5 C136,18.1192881 137.119288,17 138.5,17 C139.880712,17 141,18.1192881 141,19.5 C141,20.8807119 139.880712,22 138.5,22 Z M155.5,22 C154.119288,22 153,20.8807119 153,19.5 C153,18.1192881 154.119288,17 155.5,17 C156.880712,17 158,18.1192881 158,19.5 C158,20.8807119 156.880712,22 155.5,22 Z M2.5,39 C1.11928813,39 0,37.8807119 0,36.5 C0,35.1192881 1.11928813,34 2.5,34 C3.88071187,34 5,35.1192881 5,36.5 C5,37.8807119 3.88071187,39 2.5,39 Z M19.5,39 C18.1192881,39 17,37.8807119 17,36.5 C17,35.1192881 18.1192881,34 19.5,34 C20.8807119,34 22,35.1192881 22,36.5 C22,37.8807119 20.8807119,39 19.5,39 Z M36.5,39 C35.1192881,39 34,37.8807119 34,36.5 C34,35.1192881 35.1192881,34 36.5,34 C37.8807119,34 39,35.1192881 39,36.5 C39,37.8807119 37.8807119,39 36.5,39 Z M53.5,39 C52.1192881,39 51,37.8807119 51,36.5 C51,35.1192881 52.1192881,34 53.5,34 C54.8807119,34 56,35.1192881 56,36.5 C56,37.8807119 54.8807119,39 53.5,39 Z M70.5,39 C69.1192881,39 68,37.8807119 68,36.5 C68,35.1192881 69.1192881,34 70.5,34 C71.8807119,34 73,35.1192881 73,36.5 C73,37.8807119 71.8807119,39 70.5,39 Z M87.5,39 C86.1192881,39 85,37.8807119 85,36.5 C85,35.1192881 86.1192881,34 87.5,34 C88.8807119,34 90,35.1192881 90,36.5 C90,37.8807119 88.8807119,39 87.5,39 Z M104.5,39 C103.119288,39 102,37.8807119 102,36.5 C102,35.1192881 103.119288,34 104.5,34 C105.880712,34 107,35.1192881 107,36.5 C107,37.8807119 105.880712,39 104.5,39 Z M121.5,39 C120.119288,39 119,37.8807119 119,36.5 C119,35.1192881 120.119288,34 121.5,34 C122.880712,34 124,35.1192881 124,36.5 C124,37.8807119 122.880712,39 121.5,39 Z M138.5,39 C137.119288,39 136,37.8807119 136,36.5 C136,35.1192881 137.119288,34 138.5,34 C139.880712,34 141,35.1192881 141,36.5 C141,37.8807119 139.880712,39 138.5,39 Z M155.5,39 C154.119288,39 153,37.8807119 153,36.5 C153,35.1192881 154.119288,34 155.5,34 C156.880712,34 158,35.1192881 158,36.5 C158,37.8807119 156.880712,39 155.5,39 Z M2.5,56 C1.11928813,56 0,54.8807119 0,53.5 C0,52.1192881 1.11928813,51 2.5,51 C3.88071187,51 5,52.1192881 5,53.5 C5,54.8807119 3.88071187,56 2.5,56 Z M19.5,56 C18.1192881,56 17,54.8807119 17,53.5 C17,52.1192881 18.1192881,51 19.5,51 C20.8807119,51 22,52.1192881 22,53.5 C22,54.8807119 20.8807119,56 19.5,56 Z M36.5,56 C35.1192881,56 34,54.8807119 34,53.5 C34,52.1192881 35.1192881,51 36.5,51 C37.8807119,51 39,52.1192881 39,53.5 C39,54.8807119 37.8807119,56 36.5,56 Z M53.5,56 C52.1192881,56 51,54.8807119 51,53.5 C51,52.1192881 52.1192881,51 53.5,51 C54.8807119,51 56,52.1192881 56,53.5 C56,54.8807119 54.8807119,56 53.5,56 Z M70.5,56 C69.1192881,56 68,54.8807119 68,53.5 C68,52.1192881 69.1192881,51 70.5,51 C71.8807119,51 73,52.1192881 73,53.5 C73,54.8807119 71.8807119,56 70.5,56 Z M87.5,56 C86.1192881,56 85,54.8807119 85,53.5 C85,52.1192881 86.1192881,51 87.5,51 C88.8807119,51 90,52.1192881 90,53.5 C90,54.8807119 88.8807119,56 87.5,56 Z M104.5,56 C103.119288,56 102,54.8807119 102,53.5 C102,52.1192881 103.119288,51 104.5,51 C105.880712,51 107,52.1192881 107,53.5 C107,54.8807119 105.880712,56 104.5,56 Z M121.5,56 C120.119288,56 119,54.8807119 119,53.5 C119,52.1192881 120.119288,51 121.5,51 C122.880712,51 124,52.1192881 124,53.5 C124,54.8807119 122.880712,56 121.5,56 Z M138.5,56 C137.119288,56 136,54.8807119 136,53.5 C136,52.1192881 137.119288,51 138.5,51 C139.880712,51 141,52.1192881 141,53.5 C141,54.8807119 139.880712,56 138.5,56 Z M155.5,56 C154.119288,56 153,54.8807119 153,53.5 C153,52.1192881 154.119288,51 155.5,51 C156.880712,51 158,52.1192881 158,53.5 C158,54.8807119 156.880712,56 155.5,56 Z M2.5,73 C1.11928813,73 0,71.8807119 0,70.5 C0,69.1192881 1.11928813,68 2.5,68 C3.88071187,68 5,69.1192881 5,70.5 C5,71.8807119 3.88071187,73 2.5,73 Z M19.5,73 C18.1192881,73 17,71.8807119 17,70.5 C17,69.1192881 18.1192881,68 19.5,68 C20.8807119,68 22,69.1192881 22,70.5 C22,71.8807119 20.8807119,73 19.5,73 Z M36.5,73 C35.1192881,73 34,71.8807119 34,70.5 C34,69.1192881 35.1192881,68 36.5,68 C37.8807119,68 39,69.1192881 39,70.5 C39,71.8807119 37.8807119,73 36.5,73 Z M53.5,73 C52.1192881,73 51,71.8807119 51,70.5 C51,69.1192881 52.1192881,68 53.5,68 C54.8807119,68 56,69.1192881 56,70.5 C56,71.8807119 54.8807119,73 53.5,73 Z M70.5,73 C69.1192881,73 68,71.8807119 68,70.5 C68,69.1192881 69.1192881,68 70.5,68 C71.8807119,68 73,69.1192881 73,70.5 C73,71.8807119 71.8807119,73 70.5,73 Z M87.5,73 C86.1192881,73 85,71.8807119 85,70.5 C85,69.1192881 86.1192881,68 87.5,68 C88.8807119,68 90,69.1192881 90,70.5 C90,71.8807119 88.8807119,73 87.5,73 Z M104.5,73 C103.119288,73 102,71.8807119 102,70.5 C102,69.1192881 103.119288,68 104.5,68 C105.880712,68 107,69.1192881 107,70.5 C107,71.8807119 105.880712,73 104.5,73 Z M121.5,73 C120.119288,73 119,71.8807119 119,70.5 C119,69.1192881 120.119288,68 121.5,68 C122.880712,68 124,69.1192881 124,70.5 C124,71.8807119 122.880712,73 121.5,73 Z M138.5,73 C137.119288,73 136,71.8807119 136,70.5 C136,69.1192881 137.119288,68 138.5,68 C139.880712,68 141,69.1192881 141,70.5 C141,71.8807119 139.880712,73 138.5,73 Z M155.5,73 C154.119288,73 153,71.8807119 153,70.5 C153,69.1192881 154.119288,68 155.5,68 C156.880712,68 158,69.1192881 158,70.5 C158,71.8807119 156.880712,73 155.5,73 Z M2.5,90 C1.11928813,90 0,88.8807119 0,87.5 C0,86.1192881 1.11928813,85 2.5,85 C3.88071187,85 5,86.1192881 5,87.5 C5,88.8807119 3.88071187,90 2.5,90 Z M19.5,90 C18.1192881,90 17,88.8807119 17,87.5 C17,86.1192881 18.1192881,85 19.5,85 C20.8807119,85 22,86.1192881 22,87.5 C22,88.8807119 20.8807119,90 19.5,90 Z M36.5,90 C35.1192881,90 34,88.8807119 34,87.5 C34,86.1192881 35.1192881,85 36.5,85 C37.8807119,85 39,86.1192881 39,87.5 C39,88.8807119 37.8807119,90 36.5,90 Z M53.5,90 C52.1192881,90 51,88.8807119 51,87.5 C51,86.1192881 52.1192881,85 53.5,85 C54.8807119,85 56,86.1192881 56,87.5 C56,88.8807119 54.8807119,90 53.5,90 Z M70.5,90 C69.1192881,90 68,88.8807119 68,87.5 C68,86.1192881 69.1192881,85 70.5,85 C71.8807119,85 73,86.1192881 73,87.5 C73,88.8807119 71.8807119,90 70.5,90 Z M87.5,90 C86.1192881,90 85,88.8807119 85,87.5 C85,86.1192881 86.1192881,85 87.5,85 C88.8807119,85 90,86.1192881 90,87.5 C90,88.8807119 88.8807119,90 87.5,90 Z M104.5,90 C103.119288,90 102,88.8807119 102,87.5 C102,86.1192881 103.119288,85 104.5,85 C105.880712,85 107,86.1192881 107,87.5 C107,88.8807119 105.880712,90 104.5,90 Z M121.5,90 C120.119288,90 119,88.8807119 119,87.5 C119,86.1192881 120.119288,85 121.5,85 C122.880712,85 124,86.1192881 124,87.5 C124,88.8807119 122.880712,90 121.5,90 Z M138.5,90 C137.119288,90 136,88.8807119 136,87.5 C136,86.1192881 137.119288,85 138.5,85 C139.880712,85 141,86.1192881 141,87.5 C141,88.8807119 139.880712,90 138.5,90 Z M155.5,90 C154.119288,90 153,88.8807119 153,87.5 C153,86.1192881 154.119288,85 155.5,85 C156.880712,85 158,86.1192881 158,87.5 C158,88.8807119 156.880712,90 155.5,90 Z M2.5,107 C1.11928813,107 0,105.880712 0,104.5 C0,103.119288 1.11928813,102 2.5,102 C3.88071187,102 5,103.119288 5,104.5 C5,105.880712 3.88071187,107 2.5,107 Z M19.5,107 C18.1192881,107 17,105.880712 17,104.5 C17,103.119288 18.1192881,102 19.5,102 C20.8807119,102 22,103.119288 22,104.5 C22,105.880712 20.8807119,107 19.5,107 Z M36.5,107 C35.1192881,107 34,105.880712 34,104.5 C34,103.119288 35.1192881,102 36.5,102 C37.8807119,102 39,103.119288 39,104.5 C39,105.880712 37.8807119,107 36.5,107 Z M53.5,107 C52.1192881,107 51,105.880712 51,104.5 C51,103.119288 52.1192881,102 53.5,102 C54.8807119,102 56,103.119288 56,104.5 C56,105.880712 54.8807119,107 53.5,107 Z M70.5,107 C69.1192881,107 68,105.880712 68,104.5 C68,103.119288 69.1192881,102 70.5,102 C71.8807119,102 73,103.119288 73,104.5 C73,105.880712 71.8807119,107 70.5,107 Z M87.5,107 C86.1192881,107 85,105.880712 85,104.5 C85,103.119288 86.1192881,102 87.5,102 C88.8807119,102 90,103.119288 90,104.5 C90,105.880712 88.8807119,107 87.5,107 Z M104.5,107 C103.119288,107 102,105.880712 102,104.5 C102,103.119288 103.119288,102 104.5,102 C105.880712,102 107,103.119288 107,104.5 C107,105.880712 105.880712,107 104.5,107 Z M121.5,107 C120.119288,107 119,105.880712 119,104.5 C119,103.119288 120.119288,102 121.5,102 C122.880712,102 124,103.119288 124,104.5 C124,105.880712 122.880712,107 121.5,107 Z M138.5,107 C137.119288,107 136,105.880712 136,104.5 C136,103.119288 137.119288,102 138.5,102 C139.880712,102 141,103.119288 141,104.5 C141,105.880712 139.880712,107 138.5,107 Z M155.5,107 C154.119288,107 153,105.880712 153,104.5 C153,103.119288 154.119288,102 155.5,102 C156.880712,102 158,103.119288 158,104.5 C158,105.880712 156.880712,107 155.5,107 Z M2.5,124 C1.11928813,124 0,122.880712 0,121.5 C0,120.119288 1.11928813,119 2.5,119 C3.88071187,119 5,120.119288 5,121.5 C5,122.880712 3.88071187,124 2.5,124 Z M19.5,124 C18.1192881,124 17,122.880712 17,121.5 C17,120.119288 18.1192881,119 19.5,119 C20.8807119,119 22,120.119288 22,121.5 C22,122.880712 20.8807119,124 19.5,124 Z M36.5,124 C35.1192881,124 34,122.880712 34,121.5 C34,120.119288 35.1192881,119 36.5,119 C37.8807119,119 39,120.119288 39,121.5 C39,122.880712 37.8807119,124 36.5,124 Z M53.5,124 C52.1192881,124 51,122.880712 51,121.5 C51,120.119288 52.1192881,119 53.5,119 C54.8807119,119 56,120.119288 56,121.5 C56,122.880712 54.8807119,124 53.5,124 Z M70.5,124 C69.1192881,124 68,122.880712 68,121.5 C68,120.119288 69.1192881,119 70.5,119 C71.8807119,119 73,120.119288 73,121.5 C73,122.880712 71.8807119,124 70.5,124 Z M87.5,124 C86.1192881,124 85,122.880712 85,121.5 C85,120.119288 86.1192881,119 87.5,119 C88.8807119,119 90,120.119288 90,121.5 C90,122.880712 88.8807119,124 87.5,124 Z M104.5,124 C103.119288,124 102,122.880712 102,121.5 C102,120.119288 103.119288,119 104.5,119 C105.880712,119 107,120.119288 107,121.5 C107,122.880712 105.880712,124 104.5,124 Z M121.5,124 C120.119288,124 119,122.880712 119,121.5 C119,120.119288 120.119288,119 121.5,119 C122.880712,119 124,120.119288 124,121.5 C124,122.880712 122.880712,124 121.5,124 Z M138.5,124 C137.119288,124 136,122.880712 136,121.5 C136,120.119288 137.119288,119 138.5,119 C139.880712,119 141,120.119288 141,121.5 C141,122.880712 139.880712,124 138.5,124 Z M155.5,124 C154.119288,124 153,122.880712 153,121.5 C153,120.119288 154.119288,119 155.5,119 C156.880712,119 158,120.119288 158,121.5 C158,122.880712 156.880712,124 155.5,124 Z M2.5,141 C1.11928813,141 0,139.880712 0,138.5 C0,137.119288 1.11928813,136 2.5,136 C3.88071187,136 5,137.119288 5,138.5 C5,139.880712 3.88071187,141 2.5,141 Z M19.5,141 C18.1192881,141 17,139.880712 17,138.5 C17,137.119288 18.1192881,136 19.5,136 C20.8807119,136 22,137.119288 22,138.5 C22,139.880712 20.8807119,141 19.5,141 Z M36.5,141 C35.1192881,141 34,139.880712 34,138.5 C34,137.119288 35.1192881,136 36.5,136 C37.8807119,136 39,137.119288 39,138.5 C39,139.880712 37.8807119,141 36.5,141 Z M53.5,141 C52.1192881,141 51,139.880712 51,138.5 C51,137.119288 52.1192881,136 53.5,136 C54.8807119,136 56,137.119288 56,138.5 C56,139.880712 54.8807119,141 53.5,141 Z M70.5,141 C69.1192881,141 68,139.880712 68,138.5 C68,137.119288 69.1192881,136 70.5,136 C71.8807119,136 73,137.119288 73,138.5 C73,139.880712 71.8807119,141 70.5,141 Z M87.5,141 C86.1192881,141 85,139.880712 85,138.5 C85,137.119288 86.1192881,136 87.5,136 C88.8807119,136 90,137.119288 90,138.5 C90,139.880712 88.8807119,141 87.5,141 Z M104.5,141 C103.119288,141 102,139.880712 102,138.5 C102,137.119288 103.119288,136 104.5,136 C105.880712,136 107,137.119288 107,138.5 C107,139.880712 105.880712,141 104.5,141 Z M121.5,141 C120.119288,141 119,139.880712 119,138.5 C119,137.119288 120.119288,136 121.5,136 C122.880712,136 124,137.119288 124,138.5 C124,139.880712 122.880712,141 121.5,141 Z M138.5,141 C137.119288,141 136,139.880712 136,138.5 C136,137.119288 137.119288,136 138.5,136 C139.880712,136 141,137.119288 141,138.5 C141,139.880712 139.880712,141 138.5,141 Z M155.5,141 C154.119288,141 153,139.880712 153,138.5 C153,137.119288 154.119288,136 155.5,136 C156.880712,136 158,137.119288 158,138.5 C158,139.880712 156.880712,141 155.5,141 Z M2.5,158 C1.11928813,158 0,156.880712 0,155.5 C0,154.119288 1.11928813,153 2.5,153 C3.88071187,153 5,154.119288 5,155.5 C5,156.880712 3.88071187,158 2.5,158 Z M19.5,158 C18.1192881,158 17,156.880712 17,155.5 C17,154.119288 18.1192881,153 19.5,153 C20.8807119,153 22,154.119288 22,155.5 C22,156.880712 20.8807119,158 19.5,158 Z M36.5,158 C35.1192881,158 34,156.880712 34,155.5 C34,154.119288 35.1192881,153 36.5,153 C37.8807119,153 39,154.119288 39,155.5 C39,156.880712 37.8807119,158 36.5,158 Z M53.5,158 C52.1192881,158 51,156.880712 51,155.5 C51,154.119288 52.1192881,153 53.5,153 C54.8807119,153 56,154.119288 56,155.5 C56,156.880712 54.8807119,158 53.5,158 Z M70.5,158 C69.1192881,158 68,156.880712 68,155.5 C68,154.119288 69.1192881,153 70.5,153 C71.8807119,153 73,154.119288 73,155.5 C73,156.880712 71.8807119,158 70.5,158 Z M87.5,158 C86.1192881,158 85,156.880712 85,155.5 C85,154.119288 86.1192881,153 87.5,153 C88.8807119,153 90,154.119288 90,155.5 C90,156.880712 88.8807119,158 87.5,158 Z M104.5,158 C103.119288,158 102,156.880712 102,155.5 C102,154.119288 103.119288,153 104.5,153 C105.880712,153 107,154.119288 107,155.5 C107,156.880712 105.880712,158 104.5,158 Z M121.5,158 C120.119288,158 119,156.880712 119,155.5 C119,154.119288 120.119288,153 121.5,153 C122.880712,153 124,154.119288 124,155.5 C124,156.880712 122.880712,158 121.5,158 Z M138.5,158 C137.119288,158 136,156.880712 136,155.5 C136,154.119288 137.119288,153 138.5,153 C139.880712,153 141,154.119288 141,155.5 C141,156.880712 139.880712,158 138.5,158 Z M155.5,158 C154.119288,158 153,156.880712 153,155.5 C153,154.119288 154.119288,153 155.5,153 C156.880712,153 158,154.119288 158,155.5 C158,156.880712 156.880712,158 155.5,158 Z" id="Combined-Shape-Copy-4"></path>
            <path d="M2.5,175 C1.11928813,175 0,173.880712 0,172.5 C0,171.119288 1.11928813,170 2.5,170 C3.88071187,170 5,171.119288 5,172.5 C5,173.880712 3.88071187,175 2.5,175 Z M19.5,175 C18.1192881,175 17,173.880712 17,172.5 C17,171.119288 18.1192881,170 19.5,170 C20.8807119,170 22,171.119288 22,172.5 C22,173.880712 20.8807119,175 19.5,175 Z M36.5,175 C35.1192881,175 34,173.880712 34,172.5 C34,171.119288 35.1192881,170 36.5,170 C37.8807119,170 39,171.119288 39,172.5 C39,173.880712 37.8807119,175 36.5,175 Z M53.5,175 C52.1192881,175 51,173.880712 51,172.5 C51,171.119288 52.1192881,170 53.5,170 C54.8807119,170 56,171.119288 56,172.5 C56,173.880712 54.8807119,175 53.5,175 Z M70.5,175 C69.1192881,175 68,173.880712 68,172.5 C68,171.119288 69.1192881,170 70.5,170 C71.8807119,170 73,171.119288 73,172.5 C73,173.880712 71.8807119,175 70.5,175 Z M87.5,175 C86.1192881,175 85,173.880712 85,172.5 C85,171.119288 86.1192881,170 87.5,170 C88.8807119,170 90,171.119288 90,172.5 C90,173.880712 88.8807119,175 87.5,175 Z M104.5,175 C103.119288,175 102,173.880712 102,172.5 C102,171.119288 103.119288,170 104.5,170 C105.880712,170 107,171.119288 107,172.5 C107,173.880712 105.880712,175 104.5,175 Z M121.5,175 C120.119288,175 119,173.880712 119,172.5 C119,171.119288 120.119288,170 121.5,170 C122.880712,170 124,171.119288 124,172.5 C124,173.880712 122.880712,175 121.5,175 Z M138.5,175 C137.119288,175 136,173.880712 136,172.5 C136,171.119288 137.119288,170 138.5,170 C139.880712,170 141,171.119288 141,172.5 C141,173.880712 139.880712,175 138.5,175 Z M155.5,175 C154.119288,175 153,173.880712 153,172.5 C153,171.119288 154.119288,170 155.5,170 C156.880712,170 158,171.119288 158,172.5 C158,173.880712 156.880712,175 155.5,175 Z M2.5,192 C1.11928813,192 0,190.880712 0,189.5 C0,188.119288 1.11928813,187 2.5,187 C3.88071187,187 5,188.119288 5,189.5 C5,190.880712 3.88071187,192 2.5,192 Z M19.5,192 C18.1192881,192 17,190.880712 17,189.5 C17,188.119288 18.1192881,187 19.5,187 C20.8807119,187 22,188.119288 22,189.5 C22,190.880712 20.8807119,192 19.5,192 Z M36.5,192 C35.1192881,192 34,190.880712 34,189.5 C34,188.119288 35.1192881,187 36.5,187 C37.8807119,187 39,188.119288 39,189.5 C39,190.880712 37.8807119,192 36.5,192 Z M53.5,192 C52.1192881,192 51,190.880712 51,189.5 C51,188.119288 52.1192881,187 53.5,187 C54.8807119,187 56,188.119288 56,189.5 C56,190.880712 54.8807119,192 53.5,192 Z M70.5,192 C69.1192881,192 68,190.880712 68,189.5 C68,188.119288 69.1192881,187 70.5,187 C71.8807119,187 73,188.119288 73,189.5 C73,190.880712 71.8807119,192 70.5,192 Z M87.5,192 C86.1192881,192 85,190.880712 85,189.5 C85,188.119288 86.1192881,187 87.5,187 C88.8807119,187 90,188.119288 90,189.5 C90,190.880712 88.8807119,192 87.5,192 Z M104.5,192 C103.119288,192 102,190.880712 102,189.5 C102,188.119288 103.119288,187 104.5,187 C105.880712,187 107,188.119288 107,189.5 C107,190.880712 105.880712,192 104.5,192 Z M121.5,192 C120.119288,192 119,190.880712 119,189.5 C119,188.119288 120.119288,187 121.5,187 C122.880712,187 124,188.119288 124,189.5 C124,190.880712 122.880712,192 121.5,192 Z M138.5,192 C137.119288,192 136,190.880712 136,189.5 C136,188.119288 137.119288,187 138.5,187 C139.880712,187 141,188.119288 141,189.5 C141,190.880712 139.880712,192 138.5,192 Z M155.5,192 C154.119288,192 153,190.880712 153,189.5 C153,188.119288 154.119288,187 155.5,187 C156.880712,187 158,188.119288 158,189.5 C158,190.880712 156.880712,192 155.5,192 Z M2.5,209 C1.11928813,209 0,207.880712 0,206.5 C0,205.119288 1.11928813,204 2.5,204 C3.88071187,204 5,205.119288 5,206.5 C5,207.880712 3.88071187,209 2.5,209 Z M19.5,209 C18.1192881,209 17,207.880712 17,206.5 C17,205.119288 18.1192881,204 19.5,204 C20.8807119,204 22,205.119288 22,206.5 C22,207.880712 20.8807119,209 19.5,209 Z M36.5,209 C35.1192881,209 34,207.880712 34,206.5 C34,205.119288 35.1192881,204 36.5,204 C37.8807119,204 39,205.119288 39,206.5 C39,207.880712 37.8807119,209 36.5,209 Z M53.5,209 C52.1192881,209 51,207.880712 51,206.5 C51,205.119288 52.1192881,204 53.5,204 C54.8807119,204 56,205.119288 56,206.5 C56,207.880712 54.8807119,209 53.5,209 Z M70.5,209 C69.1192881,209 68,207.880712 68,206.5 C68,205.119288 69.1192881,204 70.5,204 C71.8807119,204 73,205.119288 73,206.5 C73,207.880712 71.8807119,209 70.5,209 Z M87.5,209 C86.1192881,209 85,207.880712 85,206.5 C85,205.119288 86.1192881,204 87.5,204 C88.8807119,204 90,205.119288 90,206.5 C90,207.880712 88.8807119,209 87.5,209 Z M104.5,209 C103.119288,209 102,207.880712 102,206.5 C102,205.119288 103.119288,204 104.5,204 C105.880712,204 107,205.119288 107,206.5 C107,207.880712 105.880712,209 104.5,209 Z M121.5,209 C120.119288,209 119,207.880712 119,206.5 C119,205.119288 120.119288,204 121.5,204 C122.880712,204 124,205.119288 124,206.5 C124,207.880712 122.880712,209 121.5,209 Z M138.5,209 C137.119288,209 136,207.880712 136,206.5 C136,205.119288 137.119288,204 138.5,204 C139.880712,204 141,205.119288 141,206.5 C141,207.880712 139.880712,209 138.5,209 Z M155.5,209 C154.119288,209 153,207.880712 153,206.5 C153,205.119288 154.119288,204 155.5,204 C156.880712,204 158,205.119288 158,206.5 C158,207.880712 156.880712,209 155.5,209 Z M2.5,226 C1.11928813,226 0,224.880712 0,223.5 C0,222.119288 1.11928813,221 2.5,221 C3.88071187,221 5,222.119288 5,223.5 C5,224.880712 3.88071187,226 2.5,226 Z M19.5,226 C18.1192881,226 17,224.880712 17,223.5 C17,222.119288 18.1192881,221 19.5,221 C20.8807119,221 22,222.119288 22,223.5 C22,224.880712 20.8807119,226 19.5,226 Z M36.5,226 C35.1192881,226 34,224.880712 34,223.5 C34,222.119288 35.1192881,221 36.5,221 C37.8807119,221 39,222.119288 39,223.5 C39,224.880712 37.8807119,226 36.5,226 Z M53.5,226 C52.1192881,226 51,224.880712 51,223.5 C51,222.119288 52.1192881,221 53.5,221 C54.8807119,221 56,222.119288 56,223.5 C56,224.880712 54.8807119,226 53.5,226 Z M70.5,226 C69.1192881,226 68,224.880712 68,223.5 C68,222.119288 69.1192881,221 70.5,221 C71.8807119,221 73,222.119288 73,223.5 C73,224.880712 71.8807119,226 70.5,226 Z M87.5,226 C86.1192881,226 85,224.880712 85,223.5 C85,222.119288 86.1192881,221 87.5,221 C88.8807119,221 90,222.119288 90,223.5 C90,224.880712 88.8807119,226 87.5,226 Z M104.5,226 C103.119288,226 102,224.880712 102,223.5 C102,222.119288 103.119288,221 104.5,221 C105.880712,221 107,222.119288 107,223.5 C107,224.880712 105.880712,226 104.5,226 Z M121.5,226 C120.119288,226 119,224.880712 119,223.5 C119,222.119288 120.119288,221 121.5,221 C122.880712,221 124,222.119288 124,223.5 C124,224.880712 122.880712,226 121.5,226 Z M138.5,226 C137.119288,226 136,224.880712 136,223.5 C136,222.119288 137.119288,221 138.5,221 C139.880712,221 141,222.119288 141,223.5 C141,224.880712 139.880712,226 138.5,226 Z M155.5,226 C154.119288,226 153,224.880712 153,223.5 C153,222.119288 154.119288,221 155.5,221 C156.880712,221 158,222.119288 158,223.5 C158,224.880712 156.880712,226 155.5,226 Z M2.5,243 C1.11928813,243 0,241.880712 0,240.5 C0,239.119288 1.11928813,238 2.5,238 C3.88071187,238 5,239.119288 5,240.5 C5,241.880712 3.88071187,243 2.5,243 Z M19.5,243 C18.1192881,243 17,241.880712 17,240.5 C17,239.119288 18.1192881,238 19.5,238 C20.8807119,238 22,239.119288 22,240.5 C22,241.880712 20.8807119,243 19.5,243 Z M36.5,243 C35.1192881,243 34,241.880712 34,240.5 C34,239.119288 35.1192881,238 36.5,238 C37.8807119,238 39,239.119288 39,240.5 C39,241.880712 37.8807119,243 36.5,243 Z M53.5,243 C52.1192881,243 51,241.880712 51,240.5 C51,239.119288 52.1192881,238 53.5,238 C54.8807119,238 56,239.119288 56,240.5 C56,241.880712 54.8807119,243 53.5,243 Z M70.5,243 C69.1192881,243 68,241.880712 68,240.5 C68,239.119288 69.1192881,238 70.5,238 C71.8807119,238 73,239.119288 73,240.5 C73,241.880712 71.8807119,243 70.5,243 Z M87.5,243 C86.1192881,243 85,241.880712 85,240.5 C85,239.119288 86.1192881,238 87.5,238 C88.8807119,238 90,239.119288 90,240.5 C90,241.880712 88.8807119,243 87.5,243 Z M104.5,243 C103.119288,243 102,241.880712 102,240.5 C102,239.119288 103.119288,238 104.5,238 C105.880712,238 107,239.119288 107,240.5 C107,241.880712 105.880712,243 104.5,243 Z M121.5,243 C120.119288,243 119,241.880712 119,240.5 C119,239.119288 120.119288,238 121.5,238 C122.880712,238 124,239.119288 124,240.5 C124,241.880712 122.880712,243 121.5,243 Z M138.5,243 C137.119288,243 136,241.880712 136,240.5 C136,239.119288 137.119288,238 138.5,238 C139.880712,238 141,239.119288 141,240.5 C141,241.880712 139.880712,243 138.5,243 Z M155.5,243 C154.119288,243 153,241.880712 153,240.5 C153,239.119288 154.119288,238 155.5,238 C156.880712,238 158,239.119288 158,240.5 C158,241.880712 156.880712,243 155.5,243 Z M2.5,260 C1.11928813,260 0,258.880712 0,257.5 C0,256.119288 1.11928813,255 2.5,255 C3.88071187,255 5,256.119288 5,257.5 C5,258.880712 3.88071187,260 2.5,260 Z M19.5,260 C18.1192881,260 17,258.880712 17,257.5 C17,256.119288 18.1192881,255 19.5,255 C20.8807119,255 22,256.119288 22,257.5 C22,258.880712 20.8807119,260 19.5,260 Z M36.5,260 C35.1192881,260 34,258.880712 34,257.5 C34,256.119288 35.1192881,255 36.5,255 C37.8807119,255 39,256.119288 39,257.5 C39,258.880712 37.8807119,260 36.5,260 Z M53.5,260 C52.1192881,260 51,258.880712 51,257.5 C51,256.119288 52.1192881,255 53.5,255 C54.8807119,255 56,256.119288 56,257.5 C56,258.880712 54.8807119,260 53.5,260 Z M70.5,260 C69.1192881,260 68,258.880712 68,257.5 C68,256.119288 69.1192881,255 70.5,255 C71.8807119,255 73,256.119288 73,257.5 C73,258.880712 71.8807119,260 70.5,260 Z M87.5,260 C86.1192881,260 85,258.880712 85,257.5 C85,256.119288 86.1192881,255 87.5,255 C88.8807119,255 90,256.119288 90,257.5 C90,258.880712 88.8807119,260 87.5,260 Z M104.5,260 C103.119288,260 102,258.880712 102,257.5 C102,256.119288 103.119288,255 104.5,255 C105.880712,255 107,256.119288 107,257.5 C107,258.880712 105.880712,260 104.5,260 Z M121.5,260 C120.119288,260 119,258.880712 119,257.5 C119,256.119288 120.119288,255 121.5,255 C122.880712,255 124,256.119288 124,257.5 C124,258.880712 122.880712,260 121.5,260 Z M138.5,260 C137.119288,260 136,258.880712 136,257.5 C136,256.119288 137.119288,255 138.5,255 C139.880712,255 141,256.119288 141,257.5 C141,258.880712 139.880712,260 138.5,260 Z M155.5,260 C154.119288,260 153,258.880712 153,257.5 C153,256.119288 154.119288,255 155.5,255 C156.880712,255 158,256.119288 158,257.5 C158,258.880712 156.880712,260 155.5,260 Z M2.5,277 C1.11928813,277 0,275.880712 0,274.5 C0,273.119288 1.11928813,272 2.5,272 C3.88071187,272 5,273.119288 5,274.5 C5,275.880712 3.88071187,277 2.5,277 Z M19.5,277 C18.1192881,277 17,275.880712 17,274.5 C17,273.119288 18.1192881,272 19.5,272 C20.8807119,272 22,273.119288 22,274.5 C22,275.880712 20.8807119,277 19.5,277 Z M36.5,277 C35.1192881,277 34,275.880712 34,274.5 C34,273.119288 35.1192881,272 36.5,272 C37.8807119,272 39,273.119288 39,274.5 C39,275.880712 37.8807119,277 36.5,277 Z M53.5,277 C52.1192881,277 51,275.880712 51,274.5 C51,273.119288 52.1192881,272 53.5,272 C54.8807119,272 56,273.119288 56,274.5 C56,275.880712 54.8807119,277 53.5,277 Z M70.5,277 C69.1192881,277 68,275.880712 68,274.5 C68,273.119288 69.1192881,272 70.5,272 C71.8807119,272 73,273.119288 73,274.5 C73,275.880712 71.8807119,277 70.5,277 Z M87.5,277 C86.1192881,277 85,275.880712 85,274.5 C85,273.119288 86.1192881,272 87.5,272 C88.8807119,272 90,273.119288 90,274.5 C90,275.880712 88.8807119,277 87.5,277 Z M104.5,277 C103.119288,277 102,275.880712 102,274.5 C102,273.119288 103.119288,272 104.5,272 C105.880712,272 107,273.119288 107,274.5 C107,275.880712 105.880712,277 104.5,277 Z M121.5,277 C120.119288,277 119,275.880712 119,274.5 C119,273.119288 120.119288,272 121.5,272 C122.880712,272 124,273.119288 124,274.5 C124,275.880712 122.880712,277 121.5,277 Z M138.5,277 C137.119288,277 136,275.880712 136,274.5 C136,273.119288 137.119288,272 138.5,272 C139.880712,272 141,273.119288 141,274.5 C141,275.880712 139.880712,277 138.5,277 Z M155.5,277 C154.119288,277 153,275.880712 153,274.5 C153,273.119288 154.119288,272 155.5,272 C156.880712,272 158,273.119288 158,274.5 C158,275.880712 156.880712,277 155.5,277 Z M2.5,294 C1.11928813,294 0,292.880712 0,291.5 C0,290.119288 1.11928813,289 2.5,289 C3.88071187,289 5,290.119288 5,291.5 C5,292.880712 3.88071187,294 2.5,294 Z M19.5,294 C18.1192881,294 17,292.880712 17,291.5 C17,290.119288 18.1192881,289 19.5,289 C20.8807119,289 22,290.119288 22,291.5 C22,292.880712 20.8807119,294 19.5,294 Z M36.5,294 C35.1192881,294 34,292.880712 34,291.5 C34,290.119288 35.1192881,289 36.5,289 C37.8807119,289 39,290.119288 39,291.5 C39,292.880712 37.8807119,294 36.5,294 Z M53.5,294 C52.1192881,294 51,292.880712 51,291.5 C51,290.119288 52.1192881,289 53.5,289 C54.8807119,289 56,290.119288 56,291.5 C56,292.880712 54.8807119,294 53.5,294 Z M70.5,294 C69.1192881,294 68,292.880712 68,291.5 C68,290.119288 69.1192881,289 70.5,289 C71.8807119,289 73,290.119288 73,291.5 C73,292.880712 71.8807119,294 70.5,294 Z M87.5,294 C86.1192881,294 85,292.880712 85,291.5 C85,290.119288 86.1192881,289 87.5,289 C88.8807119,289 90,290.119288 90,291.5 C90,292.880712 88.8807119,294 87.5,294 Z M104.5,294 C103.119288,294 102,292.880712 102,291.5 C102,290.119288 103.119288,289 104.5,289 C105.880712,289 107,290.119288 107,291.5 C107,292.880712 105.880712,294 104.5,294 Z M121.5,294 C120.119288,294 119,292.880712 119,291.5 C119,290.119288 120.119288,289 121.5,289 C122.880712,289 124,290.119288 124,291.5 C124,292.880712 122.880712,294 121.5,294 Z M138.5,294 C137.119288,294 136,292.880712 136,291.5 C136,290.119288 137.119288,289 138.5,289 C139.880712,289 141,290.119288 141,291.5 C141,292.880712 139.880712,294 138.5,294 Z M155.5,294 C154.119288,294 153,292.880712 153,291.5 C153,290.119288 154.119288,289 155.5,289 C156.880712,289 158,290.119288 158,291.5 C158,292.880712 156.880712,294 155.5,294 Z M2.5,311 C1.11928813,311 0,309.880712 0,308.5 C0,307.119288 1.11928813,306 2.5,306 C3.88071187,306 5,307.119288 5,308.5 C5,309.880712 3.88071187,311 2.5,311 Z M19.5,311 C18.1192881,311 17,309.880712 17,308.5 C17,307.119288 18.1192881,306 19.5,306 C20.8807119,306 22,307.119288 22,308.5 C22,309.880712 20.8807119,311 19.5,311 Z M36.5,311 C35.1192881,311 34,309.880712 34,308.5 C34,307.119288 35.1192881,306 36.5,306 C37.8807119,306 39,307.119288 39,308.5 C39,309.880712 37.8807119,311 36.5,311 Z M53.5,311 C52.1192881,311 51,309.880712 51,308.5 C51,307.119288 52.1192881,306 53.5,306 C54.8807119,306 56,307.119288 56,308.5 C56,309.880712 54.8807119,311 53.5,311 Z M70.5,311 C69.1192881,311 68,309.880712 68,308.5 C68,307.119288 69.1192881,306 70.5,306 C71.8807119,306 73,307.119288 73,308.5 C73,309.880712 71.8807119,311 70.5,311 Z M87.5,311 C86.1192881,311 85,309.880712 85,308.5 C85,307.119288 86.1192881,306 87.5,306 C88.8807119,306 90,307.119288 90,308.5 C90,309.880712 88.8807119,311 87.5,311 Z M104.5,311 C103.119288,311 102,309.880712 102,308.5 C102,307.119288 103.119288,306 104.5,306 C105.880712,306 107,307.119288 107,308.5 C107,309.880712 105.880712,311 104.5,311 Z M121.5,311 C120.119288,311 119,309.880712 119,308.5 C119,307.119288 120.119288,306 121.5,306 C122.880712,306 124,307.119288 124,308.5 C124,309.880712 122.880712,311 121.5,311 Z M138.5,311 C137.119288,311 136,309.880712 136,308.5 C136,307.119288 137.119288,306 138.5,306 C139.880712,306 141,307.119288 141,308.5 C141,309.880712 139.880712,311 138.5,311 Z M155.5,311 C154.119288,311 153,309.880712 153,308.5 C153,307.119288 154.119288,306 155.5,306 C156.880712,306 158,307.119288 158,308.5 C158,309.880712 156.880712,311 155.5,311 Z M2.5,328 C1.11928813,328 0,326.880712 0,325.5 C0,324.119288 1.11928813,323 2.5,323 C3.88071187,323 5,324.119288 5,325.5 C5,326.880712 3.88071187,328 2.5,328 Z M19.5,328 C18.1192881,328 17,326.880712 17,325.5 C17,324.119288 18.1192881,323 19.5,323 C20.8807119,323 22,324.119288 22,325.5 C22,326.880712 20.8807119,328 19.5,328 Z M36.5,328 C35.1192881,328 34,326.880712 34,325.5 C34,324.119288 35.1192881,323 36.5,323 C37.8807119,323 39,324.119288 39,325.5 C39,326.880712 37.8807119,328 36.5,328 Z M53.5,328 C52.1192881,328 51,326.880712 51,325.5 C51,324.119288 52.1192881,323 53.5,323 C54.8807119,323 56,324.119288 56,325.5 C56,326.880712 54.8807119,328 53.5,328 Z M70.5,328 C69.1192881,328 68,326.880712 68,325.5 C68,324.119288 69.1192881,323 70.5,323 C71.8807119,323 73,324.119288 73,325.5 C73,326.880712 71.8807119,328 70.5,328 Z M87.5,328 C86.1192881,328 85,326.880712 85,325.5 C85,324.119288 86.1192881,323 87.5,323 C88.8807119,323 90,324.119288 90,325.5 C90,326.880712 88.8807119,328 87.5,328 Z M104.5,328 C103.119288,328 102,326.880712 102,325.5 C102,324.119288 103.119288,323 104.5,323 C105.880712,323 107,324.119288 107,325.5 C107,326.880712 105.880712,328 104.5,328 Z M121.5,328 C120.119288,328 119,326.880712 119,325.5 C119,324.119288 120.119288,323 121.5,323 C122.880712,323 124,324.119288 124,325.5 C124,326.880712 122.880712,328 121.5,328 Z M138.5,328 C137.119288,328 136,326.880712 136,325.5 C136,324.119288 137.119288,323 138.5,323 C139.880712,323 141,324.119288 141,325.5 C141,326.880712 139.880712,328 138.5,328 Z M155.5,328 C154.119288,328 153,326.880712 153,325.5 C153,324.119288 154.119288,323 155.5,323 C156.880712,323 158,324.119288 158,325.5 C158,326.880712 156.880712,328 155.5,328 Z" id="Combined-Shape-Copy-5"></path>
        </g>
    </g>
</svg>